<svg width="15" height="15" viewBox="0 0 15 15" fill="none" xmlns="http://www.w3.org/2000/svg">
<path fill-rule="evenodd" clip-rule="evenodd" d="M1.45956 8.50691L3.47315 6.49326C3.75117 6.21524 4.20192 6.21524 4.47994 6.49326C4.7381 6.75144 4.75655 7.15852 4.53526 7.43796L4.47994 7.50008L2.46636 9.51366C1.6323 10.3477 1.6323 11.7 2.46636 12.5341C3.27063 13.3383 4.55676 13.3671 5.39544 12.6202L5.48674 12.5341L7.50033 10.5205C7.77835 10.2425 8.22913 10.2425 8.50715 10.5205C8.76527 10.7786 8.78376 11.1858 8.56247 11.4652L8.50715 11.5272L6.4935 13.5408C5.10344 14.9309 2.84966 14.9309 1.45956 13.5408C0.106048 12.1873 0.0704334 10.015 1.35271 8.6184L1.45956 8.50691ZM8.50715 1.45932C9.89718 0.0692255 12.151 0.0692255 13.5411 1.45932C14.9312 2.84941 14.9312 5.10319 13.5411 6.49326L11.5275 8.50691C11.2495 8.78493 10.7988 8.78493 10.5207 8.50691C10.2427 8.22889 10.2427 7.7781 10.5207 7.50008L12.5343 5.4865C13.3684 4.65244 13.3684 3.30017 12.5343 2.46611C11.7002 1.63206 10.348 1.63206 9.51391 2.46611L7.50033 4.4797C7.22231 4.75772 6.77152 4.75772 6.4935 4.4797C6.21548 4.20168 6.21548 3.75092 6.4935 3.47291L8.50715 1.45932ZM8.50715 5.4865C8.78517 5.20847 9.23588 5.20847 9.51391 5.4865C9.79193 5.76451 9.79193 6.21524 9.51391 6.49326L6.4935 9.51366C6.21548 9.79168 5.76475 9.79168 5.48674 9.51366C5.20872 9.23564 5.20872 8.78493 5.48674 8.50691L8.50715 5.4865Z" fill="black"/>
</svg>
